<?xml version="1.0" standalone="no"?>
<!DOCTYPE svg PUBLIC "-//W3C//DTD SVG 20010904//EN"
 "http://www.w3.org/TR/2001/REC-SVG-20010904/DTD/svg10.dtd">
<svg version="1.0" xmlns="http://www.w3.org/2000/svg"
 width="512.000000pt" height="512.000000pt" viewBox="0 0 512.000000 512.000000"
 preserveAspectRatio="xMidYMid meet">
<metadata>
Created by potrace 1.11, written by Peter Selinger 2001-2013
</metadata>
<g transform="translate(0.000000,512.000000) scale(0.100000,-0.100000)"
fill="#000000" stroke="none">
<path d="M1800 4921 c-119 -37 -198 -109 -320 -292 -81 -120 -155 -216 -194
-252 -45 -42 -128 -81 -246 -116 -333 -100 -419 -143 -492 -249 -65 -94 -72
-131 -74 -412 -1 -140 -5 -275 -8 -300 -11 -69 -59 -157 -149 -271 -188 -241
-229 -321 -233 -456 -5 -139 34 -223 201 -438 117 -151 161 -224 176 -293 8
-37 12 -139 11 -289 -1 -202 1 -243 19 -310 43 -169 149 -263 379 -332 422
-127 403 -113 654 -485 71 -105 173 -194 256 -221 112 -37 213 -28 398 36 385
133 393 134 706 19 160 -58 259 -80 341 -76 170 9 259 78 438 340 56 82 124
172 151 199 61 62 151 105 316 152 353 100 457 180 506 393 11 48 14 118 12
285 -2 245 2 287 40 366 20 43 158 241 182 261 20 16 104 146 126 193 35 77
39 99 38 197 -1 132 -42 216 -209 430 -176 225 -177 227 -179 580 -2 287 -3
294 -52 397 -22 49 -102 125 -167 160 -50 27 -181 78 -227 88 -69 16 -208 62
-266 89 -86 41 -143 97 -235 231 -38 55 -72 105 -76 110 -5 6 -16 23 -26 38
-45 70 -133 158 -192 192 -83 48 -206 63 -318 40 -32 -6 -165 -51 -272 -90
-226 -83 -291 -79 -620 38 -139 49 -179 59 -265 62 -50 2 -93 -3 -130 -14z"/>
</g>
</svg>
